<svg width="100" height="100" viewBox="0 0 100 100" fill="none" xmlns="http://www.w3.org/2000/svg">
<path d="M68.1588 39.415C68.1588 39.8102 68.0703 40.2016 67.8988 40.5667C67.7273 40.9318 67.4755 41.2636 67.1587 41.543C66.8416 41.8225 66.4651 42.0441 66.0506 42.1954C65.6365 42.3467 65.1925 42.4245 64.7441 42.4245C64.2957 42.4245 63.8518 42.3467 63.4373 42.1954C63.0232 42.0441 62.6467 41.8225 62.3296 41.543C62.0125 41.2636 61.761 40.9318 61.5895 40.5667C61.4177 40.2016 61.3295 39.8102 61.3295 39.415C61.3295 38.6168 61.6891 37.8514 62.3296 37.287C62.9701 36.7226 63.8385 36.4055 64.7441 36.4055C65.6498 36.4055 66.5182 36.7226 67.1587 37.287C67.7989 37.8514 68.1588 38.6168 68.1588 39.415ZM79 53V53.039L78.8046 63.946C78.7548 67.8795 76.9597 71.6397 73.804 74.4214C70.6486 77.2034 66.3825 78.7861 61.9195 78.831L49.5 79H49.4557L37.0805 78.8278C32.6174 78.7839 28.3511 77.2018 25.1947 74.4208C22.0383 71.6394 20.2425 67.8795 20.1917 63.946L20 53V52.961L20.1954 42.054C20.2453 38.1204 22.0401 34.3603 25.1958 31.5784C28.3515 28.7965 32.6174 27.2138 37.0805 27.169L49.5 27H49.5442L61.9195 27.1723C66.3825 27.2162 70.6489 28.798 73.8051 31.5794C76.9616 34.3607 78.7574 38.1204 78.8083 42.054L79 53ZM73.5056 53L73.3139 42.1287C73.2792 39.4549 72.0587 36.8992 69.9136 35.0084C67.7683 33.1176 64.8684 32.0419 61.8347 32.0115L49.5 31.8425L37.1653 32.0115C34.1315 32.0419 31.2318 33.1176 29.0864 35.0084C26.9411 36.8992 25.7206 39.4549 25.6861 42.1287L25.4944 53L25.6861 63.8713C25.7206 66.545 26.9411 69.1008 29.0864 70.9917C31.2318 72.8825 34.1315 73.958 37.1653 73.9885L49.5 74.1575L61.8347 73.9885C64.8684 73.958 67.7683 72.8825 69.9136 70.9917C72.0587 69.1008 73.2792 66.545 73.3139 63.8713L73.5056 53ZM64.6483 53C64.6483 56.5409 63.0523 59.9368 60.2115 62.4406C57.3706 64.9444 53.5175 66.351 49.5 66.351C45.4824 66.351 41.6294 64.9444 38.7885 62.4406C35.9477 59.9368 34.3517 56.5409 34.3517 53C34.3517 49.4591 35.9477 46.0632 38.7885 43.5594C41.6294 41.0556 45.4824 39.649 49.5 39.649C53.5175 39.649 57.3706 41.0556 60.2115 43.5594C63.0523 46.0632 64.6483 49.4591 64.6483 53ZM59.1539 53C59.1539 50.7434 58.1369 48.5792 56.3263 46.9836C54.5158 45.3879 52.0603 44.4915 49.5 44.4915C46.9396 44.4915 44.4841 45.3879 42.6736 46.9836C40.8632 48.5792 39.8461 50.7434 39.8461 53C39.8461 55.2566 40.8632 57.4207 42.6736 59.0164C44.4841 60.6122 46.9396 61.5085 49.5 61.5085C52.0603 61.5085 54.5158 60.6122 56.3263 59.0164C58.1369 57.4207 59.1539 55.2566 59.1539 53Z" fill="white"/>
<path fill-rule="evenodd" clip-rule="evenodd" d="M100 0H0V100H100V0ZM92 9H8V91H92V9Z" fill="white" fill-opacity="0.5"/>
</svg>
