<svg width="100" height="100" viewBox="0 0 100 100" fill="none" xmlns="http://www.w3.org/2000/svg">
<path d="M74.263 34.739C72.452 35.544 70.503 36.087 68.458 36.33C70.546 35.08 72.147 33.1 72.902 30.738C70.949 31.897 68.787 32.738 66.484 33.192C64.641 31.228 62.014 30 59.107 30C53.526 30 49.001 34.525 49.001 40.107C49.001 40.898 49.09 41.669 49.263 42.41C40.863 41.988 33.415 37.965 28.43 31.85C27.56 33.342 27.062 35.078 27.062 36.932C27.062 40.438 28.846 43.532 31.558 45.344C29.902 45.291 28.343 44.836 26.98 44.079C26.979 44.121 26.979 44.164 26.979 44.207C26.979 49.103 30.463 53.187 35.087 54.117C34.239 54.347 33.346 54.471 32.424 54.471C31.772 54.471 31.139 54.408 30.522 54.289C31.809 58.304 35.541 61.227 39.963 61.308C36.504 64.019 32.147 65.635 27.411 65.635C26.596 65.635 25.791 65.587 25 65.493C29.474 68.362 34.786 70.034 40.493 70.034C59.084 70.034 69.249 54.634 69.249 41.278C69.249 40.84 69.24 40.403 69.221 39.969C71.195 38.547 72.909 36.766 74.263 34.739Z" fill="white"/>
<path fill-rule="evenodd" clip-rule="evenodd" d="M100 0H0V100H100V0ZM92 9H8V91H92V9Z" fill="white" fill-opacity="0.5"/>
</svg>
