<svg width="151" height="144" viewBox="0 0 151 144" fill="none" xmlns="http://www.w3.org/2000/svg">
<rect width="151" height="144" fill="#0C0B0B"/>
<path d="M116.539 49.51C113.504 50.8732 110.238 51.7926 106.811 52.2041C110.31 50.0875 112.993 46.7347 114.258 42.735C110.985 44.6976 107.362 46.1217 103.503 46.8904C100.415 43.5647 96.013 41.4853 91.1417 41.4853C81.7897 41.4853 74.2072 49.1477 74.2072 58.5998C74.2072 59.9393 74.3563 61.2448 74.6462 62.4996C60.5704 61.785 48.0899 54.9727 39.7365 44.618C38.2787 47.1444 37.4442 50.0841 37.4442 53.2235C37.4442 59.1603 40.4336 64.3995 44.9781 67.4678C42.2032 67.3781 39.5908 66.6076 37.3068 65.3257C37.3051 65.3969 37.3051 65.4697 37.3051 65.5425C37.3051 73.833 43.1432 80.7486 50.8916 82.3234C49.4706 82.7129 47.9742 82.9228 46.4293 82.9228C45.3367 82.9228 44.276 82.8162 43.2421 82.6146C45.3987 89.4134 51.6524 94.363 59.0623 94.5001C53.2661 99.0907 45.9651 101.827 38.029 101.827C36.6633 101.827 35.3144 101.746 33.9889 101.587C41.486 106.445 50.3872 109.276 59.9504 109.276C91.1032 109.276 108.137 83.1988 108.137 60.5827C108.137 59.841 108.122 59.1011 108.09 58.3661C111.398 55.9582 114.27 52.9424 116.539 49.51Z" fill="black"/>
<rect x="9" y="10" width="133" height="124" fill="#FFFCFC"/>
<path d="M40.9764 57.6952H57.4785V111H40.9764V57.6952ZM49.3379 32C43.6899 32 40 35.9801 40 41.204C40 46.3206 43.582 50.4164 49.1219 50.4164H49.2272C54.9831 50.4164 58.5676 46.3204 58.5676 41.204C58.4597 35.9801 54.9833 32 49.3379 32ZM97.9955 56.443C89.236 56.443 85.3117 61.6147 83.1226 65.2415V57.6952H66.6156C66.8341 62.6958 66.6156 111 66.6156 111H83.1226V81.2309C83.1226 79.6365 83.2306 78.048 83.6649 76.9058C84.86 73.7229 87.5759 70.4269 92.1316 70.4269C98.1086 70.4269 100.496 75.3173 100.496 82.4799V111H117V80.4339C117 64.0612 108.86 56.443 97.9955 56.443Z" fill="black"/>
</svg>
