<svg width="100" height="100" viewBox="0 0 100 100" fill="none" xmlns="http://www.w3.org/2000/svg">
<path d="M79.6105 38.4953C79.6105 33.4565 75.7311 29.4031 70.9375 29.4031C64.4444 29.112 57.8224 29 51.0597 29C50.7081 29 50.3565 29 50.0049 29C49.6533 29 49.3017 29 48.95 29C42.1991 29 35.5654 29.112 29.0723 29.4031C24.2904 29.4031 20.4109 33.4789 20.4109 38.5177C20.1179 42.5039 19.989 46.4902 20.0007 50.4764C19.989 54.4626 20.1179 58.4489 20.3992 62.4463C20.3992 67.4851 24.2787 71.5721 29.0606 71.5721C35.8818 71.8744 42.8789 72.0088 49.9932 71.9976C57.1191 72.02 64.0928 71.8856 70.9257 71.5721C75.7194 71.5721 79.5988 67.4851 79.5988 62.4463C79.8801 58.4489 80.009 54.4626 79.9973 50.4652C80.0207 46.479 79.8918 42.4927 79.6105 38.4953ZM44.2619 61.461V39.4583L61.2564 50.454L44.2619 61.461Z" fill="white"/>
<path fill-rule="evenodd" clip-rule="evenodd" d="M100 0H0V100H100V0ZM92 9H8V91H92V9Z" fill="white" fill-opacity="0.5"/>
</svg>
