<svg width="100" height="100" viewBox="0 0 100 100" fill="none" xmlns="http://www.w3.org/2000/svg">
<path fill-rule="evenodd" clip-rule="evenodd" d="M52.4754 41.5349H62.7273L62.0122 49.0143H52.4753V75H40.4291V49.0142H34V41.5348H40.4291V36.5081C40.4291 34.2967 40.4989 30.8776 42.4992 28.7606C44.607 26.5223 47.5018 25 52.4754 25C60.5819 25 64 25.9275 64 25.9275L62.3922 33.5881C62.3922 33.5881 59.7146 32.9649 57.2141 32.9649C54.714 32.9649 52.4755 33.6825 52.4755 35.6946L52.4754 41.5349Z" fill="white"/>
<path fill-rule="evenodd" clip-rule="evenodd" d="M100 0H0V100H100V0ZM92 9H8V91H92V9Z" fill="white" fill-opacity="0.5"/>
</svg>
