<svg width="100" height="100" viewBox="0 0 100 100" fill="none" xmlns="http://www.w3.org/2000/svg">
<path d="M24.6467 41.9618H35.5766V73H24.6467V41.9618ZM30.1848 27C26.444 27 24 29.3175 24 32.3593C24 35.3386 26.3725 37.7234 30.0418 37.7234H30.1115C33.9239 37.7234 36.298 35.3384 36.298 32.3593C36.2265 29.3175 33.924 27 30.1848 27ZM62.4126 41.2327C56.6109 41.2327 54.0117 44.244 52.5617 46.3558V41.9618H41.6285C41.7733 44.8735 41.6285 73 41.6285 73H52.5617V55.6661C52.5617 54.7377 52.6332 53.8127 52.9209 53.1477C53.7125 51.2944 55.5113 49.3752 58.5287 49.3752C62.4875 49.3752 64.0685 52.2228 64.0685 56.3934V72.9999H75V55.202C75 45.6685 69.6083 41.2327 62.4126 41.2327Z" fill="white"/>
<path fill-rule="evenodd" clip-rule="evenodd" d="M100 0H0V100H100V0ZM92 9H8V91H92V9Z" fill="white" fill-opacity="0.5"/>
</svg>
