<svg width="151" height="144" viewBox="0 0 151 144" fill="none" xmlns="http://www.w3.org/2000/svg">
<rect width="151" height="144" fill="#0C0B0B"/>
<rect x="9" y="10" width="133" height="124" fill="#FFFCFC"/>
<rect x="61" y="60" width="39" height="28" fill="#FFFCFC"/>
<g clip-path="url(#clip0_4_30)">
<path d="M122.376 53.9938C122.376 46.4352 116.299 40.3547 108.79 40.3547C98.6188 39.918 88.2457 39.75 77.6524 39.75C77.1016 39.75 76.5508 39.75 76 39.75C75.4492 39.75 74.8985 39.75 74.3477 39.75C63.7727 39.75 53.3813 39.918 43.2102 40.3547C35.7195 40.3547 29.6426 46.4688 29.6426 54.0273C29.1836 60.007 28.9817 65.9867 29 71.9664C28.9817 77.9461 29.1836 83.9258 29.6242 89.9223C29.6242 97.4809 35.7012 103.612 43.1918 103.612C53.877 104.065 64.8375 104.267 75.9817 104.25C87.1442 104.284 98.068 104.082 108.772 103.612C116.28 103.612 122.357 97.4809 122.357 89.9223C122.798 83.9258 123 77.9461 122.982 71.9496C123.018 65.9699 122.816 59.9902 122.376 53.9938ZM67.0039 88.4441V55.4383L93.625 71.9328L67.0039 88.4441Z" fill="black"/>
</g>
<defs>
<clipPath id="clip0_4_30">
<rect width="94" height="86" fill="white" transform="translate(29 29)"/>
</clipPath>
</defs>
</svg>
