<svg width="151" height="144" viewBox="0 0 151 144" fill="none" xmlns="http://www.w3.org/2000/svg">
<rect width="151" height="144" fill="#0C0B0B"/>
<rect x="9" y="10" width="133" height="124" fill="#FFFCFC"/>
<path d="M103.578 50.5846C103.578 51.2856 103.445 51.9798 103.188 52.6274C102.931 53.2751 102.553 53.8635 102.078 54.3592C101.603 54.855 101.038 55.2481 100.416 55.5164C99.7955 55.7847 99.1298 55.9228 98.4574 55.9228C97.785 55.9228 97.1193 55.7847 96.4978 55.5164C95.8768 55.2481 95.3123 54.855 94.8368 54.3592C94.3612 53.8635 93.9841 53.2751 93.727 52.6274C93.4693 51.9798 93.3372 51.2856 93.3372 50.5846C93.3372 49.1689 93.8763 47.8111 94.8368 46.81C95.7972 45.8089 97.0994 45.2465 98.4574 45.2465C99.8154 45.2465 101.118 45.8089 102.078 46.81C103.038 47.8111 103.578 49.1689 103.578 50.5846ZM119.834 74.6811V74.7503L119.541 94.0967C119.466 101.074 116.775 107.743 112.043 112.677C107.311 117.612 100.914 120.419 94.2219 120.499L75.5987 120.799H75.5324L56.9757 120.493C50.2832 120.415 43.8859 117.609 39.1529 112.676C34.4199 107.743 31.7271 101.074 31.6509 94.0967L31.3634 74.6811V74.6119L31.6565 55.2656C31.7312 48.2884 34.4225 41.6188 39.1545 36.6844C43.8865 31.75 50.2832 28.9426 56.9757 28.8632L75.5987 28.5634H75.6651L94.2219 28.869C100.914 28.9469 107.312 31.7527 112.044 36.6861C116.777 41.6195 119.47 48.2884 119.547 55.2656L119.834 74.6811ZM111.595 74.6811L111.308 55.3982C111.256 50.6554 109.426 46.1222 106.209 42.7683C102.992 39.4145 98.6438 37.5065 94.0947 37.4526L75.5987 37.1529L57.1028 37.4526C52.5537 37.5065 48.2055 39.4145 44.9885 42.7683C41.7716 46.1222 39.9415 50.6554 39.8898 55.3982L39.6022 74.6811L39.8898 93.9641C39.9415 98.7067 41.7716 103.24 44.9885 106.594C48.2055 109.948 52.5537 111.855 57.1028 111.91L75.5987 112.209L94.0947 111.91C98.6438 111.855 102.992 109.948 106.209 106.594C109.426 103.24 111.256 98.7067 111.308 93.9641L111.595 74.6811ZM98.3136 74.6811C98.3136 80.9618 95.9205 86.9854 91.6607 91.4265C87.4008 95.8676 81.6231 98.3626 75.5987 98.3626C69.5744 98.3626 63.7967 95.8676 59.5369 91.4265C55.277 86.9854 52.8839 80.9618 52.8839 74.6811C52.8839 68.4004 55.277 62.3769 59.5369 57.9358C63.7967 53.4947 69.5744 50.9997 75.5987 50.9997C81.6231 50.9997 87.4008 53.4947 91.6607 57.9358C95.9205 62.3769 98.3136 68.4004 98.3136 74.6811ZM90.0748 74.6811C90.0748 70.6784 88.5498 66.8397 85.8349 64.0094C83.12 61.1791 79.438 59.5891 75.5987 59.5891C71.7594 59.5891 68.0774 61.1791 65.3626 64.0094C62.6478 66.8397 61.1227 70.6784 61.1227 74.6811C61.1227 78.6837 62.6478 82.5223 65.3626 85.3528C68.0774 88.1833 71.7594 89.7732 75.5987 89.7732C79.438 89.7732 83.12 88.1833 85.8349 85.3528C88.5498 82.5223 90.0748 78.6837 90.0748 74.6811Z" fill="black"/>
</svg>
