<svg width="80" height="80" viewBox="0 0 80 80" fill="none" xmlns="http://www.w3.org/2000/svg">
<circle cx="40" cy="40" r="40" fill="#FDFFA3"/>
<path d="M25.6875 51.8125C25.0213 51.8125 24.4688 51.2175 24.4688 50.5V31.25C24.4688 23.5325 26.6463 21.1875 33.8125 21.1875H45.1875C52.3537 21.1875 54.5312 23.5325 54.5312 31.25V48.75C54.5312 49.03 54.5312 49.2925 54.515 49.5725C54.4662 50.29 53.865 50.85 53.215 50.7975C52.8926 50.7719 52.5925 50.6107 52.3797 50.3487C52.1668 50.0867 52.0583 49.745 52.0775 49.3975C52.0937 49.1875 52.0938 48.96 52.0938 48.75V31.25C52.0938 25.0025 51.005 23.8125 45.1875 23.8125H33.8125C27.995 23.8125 26.9062 25.0025 26.9062 31.25V50.5C26.9062 51.2175 26.3537 51.8125 25.6875 51.8125Z" fill="black"/>
<path d="M47.625 58.8125H31.375C29.5447 58.8079 27.7905 58.0228 26.4963 56.629C25.202 55.2352 24.473 53.3461 24.4688 51.375V50.2375C24.4688 46.755 27.1012 43.9375 30.3187 43.9375H53.3125C53.9787 43.9375 54.5312 44.5325 54.5312 45.25V51.375C54.527 53.3461 53.798 55.2352 52.5037 56.629C51.2095 58.0228 49.4553 58.8079 47.625 58.8125ZM30.3187 46.5625C29.4137 46.5625 28.5457 46.9497 27.9057 47.6389C27.2658 48.3281 26.9062 49.2628 26.9062 50.2375V51.375C26.9062 54.035 28.905 56.1875 31.375 56.1875H47.625C50.095 56.1875 52.0938 54.035 52.0938 51.375V46.5625H30.3187ZM46 32.5625H33C32.3338 32.5625 31.7812 31.9675 31.7812 31.25C31.7812 30.5325 32.3338 29.9375 33 29.9375H46C46.6662 29.9375 47.2188 30.5325 47.2188 31.25C47.2188 31.9675 46.6662 32.5625 46 32.5625ZM41.125 38.6875H33C32.3338 38.6875 31.7812 38.0925 31.7812 37.375C31.7812 36.6575 32.3338 36.0625 33 36.0625H41.125C41.7912 36.0625 42.3438 36.6575 42.3438 37.375C42.3438 38.0925 41.7912 38.6875 41.125 38.6875Z" fill="black"/>
</svg>
