<svg width="80" height="80" viewBox="0 0 80 80" fill="none" xmlns="http://www.w3.org/2000/svg">
<circle cx="40" cy="40" r="40" fill="#FDFFA3"/>
<path d="M37.9573 46.78C36.86 46.78 35.7424 46.5967 34.8686 46.2483L22.8798 41.445C19.8318 40.2167 19.3848 38.5667 19.3848 37.6683C19.3848 36.77 19.8318 35.12 22.8798 33.8917L34.8686 29.0883C36.6365 28.3733 39.2984 28.3733 41.0662 29.0883L53.0754 33.8917C56.1031 35.1017 56.5704 36.77 56.5704 37.6683C56.5704 38.5667 56.1234 40.2167 53.0754 41.445L41.0662 46.2483C40.1722 46.615 39.0749 46.78 37.9573 46.78ZM37.9573 31.3067C37.2664 31.3067 36.5958 31.3983 36.1082 31.6L24.1194 36.4033C22.8798 36.9167 22.4328 37.43 22.4328 37.6683C22.4328 37.9067 22.8798 38.4383 24.099 38.9333L36.0878 43.7367C37.0632 44.1217 38.831 44.1217 39.8064 43.7367L51.8155 38.9333C53.0551 38.4383 53.5021 37.9067 53.5021 37.6683C53.5021 37.43 53.0551 36.8983 51.8155 36.4033L39.8267 31.6C39.339 31.4167 38.6482 31.3067 37.9573 31.3067Z" fill="black"/>
<path d="M38.384 56.3317C37.6118 56.3317 36.8397 56.185 36.1082 55.8917L22.3109 50.355C20.2179 49.53 18.572 47.2383 18.572 45.1667C18.572 44.415 19.2629 43.7917 20.096 43.7917C20.9291 43.7917 21.62 44.415 21.62 45.1667C21.62 46.175 22.5344 47.44 23.5504 47.8617L37.3477 53.3983C37.9979 53.655 38.7498 53.655 39.4203 53.3983L53.2176 47.8617C54.2336 47.4583 55.148 46.175 55.148 45.1667C55.148 44.415 55.8389 43.7917 56.672 43.7917C57.5051 43.7917 58.196 44.415 58.196 45.1667C58.196 47.2383 56.5501 49.53 54.4571 50.3733L40.6598 55.91C39.9283 56.185 39.1562 56.3317 38.384 56.3317Z" fill="black"/>
<path d="M59 23.75H47C46.59 23.75 46.25 23.41 46.25 23C46.25 22.59 46.59 22.25 47 22.25H59C59.41 22.25 59.75 22.59 59.75 23C59.75 23.41 59.41 23.75 59 23.75Z" fill="black"/>
<path d="M53 29.75C52.59 29.75 52.25 29.41 52.25 29V17C52.25 16.59 52.59 16.25 53 16.25C53.41 16.25 53.75 16.59 53.75 17V29C53.75 29.41 53.41 29.75 53 29.75Z" fill="black"/>
</svg>
