<svg width="151" height="144" viewBox="0 0 151 144" fill="none" xmlns="http://www.w3.org/2000/svg">
<rect width="151" height="144" fill="#0C0B0B"/>
<rect x="9" y="10" width="133" height="124" fill="#FFFCFC"/>
<path d="M116.539 49.51C113.504 50.8732 110.238 51.7926 106.811 52.2041C110.31 50.0875 112.993 46.7347 114.258 42.735C110.985 44.6976 107.362 46.1217 103.503 46.8904C100.415 43.5647 96.013 41.4853 91.1417 41.4853C81.7897 41.4853 74.2072 49.1477 74.2072 58.5998C74.2072 59.9393 74.3563 61.2448 74.6462 62.4996C60.5704 61.785 48.0899 54.9727 39.7365 44.618C38.2787 47.1444 37.4442 50.0841 37.4442 53.2235C37.4442 59.1603 40.4336 64.3995 44.9781 67.4678C42.2032 67.3781 39.5908 66.6076 37.3068 65.3257C37.3051 65.3969 37.3051 65.4697 37.3051 65.5425C37.3051 73.833 43.1432 80.7486 50.8916 82.3234C49.4706 82.7129 47.9742 82.9228 46.4293 82.9228C45.3367 82.9228 44.276 82.8162 43.2421 82.6146C45.3987 89.4134 51.6524 94.363 59.0623 94.5001C53.2661 99.0907 45.9651 101.827 38.029 101.827C36.6633 101.827 35.3144 101.746 33.9889 101.587C41.486 106.445 50.3872 109.276 59.9504 109.276C91.1032 109.276 108.137 83.1988 108.137 60.5827C108.137 59.841 108.122 59.1011 108.09 58.3661C111.398 55.9582 114.27 52.9424 116.539 49.51Z" fill="black"/>
</svg>
